Coordinates
version=1
nRows=14
nColumns=42
inDegrees=yes

Units are S.I. units (second, meters, Newtons, ...)
If the header above contains a line with 'inDegrees', this indicates whether rotational values are in degrees (yes) or radians (no).

endheader
time	pelvis_tilt	pelvis_list	pelvis_rotation	pelvis_tx	pelvis_ty	pelvis_tz	hip_flexion_r	hip_adduction_r	hip_rotation_r	knee_angle_r	knee_adduction_r	knee_angle_r_beta	ankle_angle_r	subtalar_angle_r	mtp_angle_r	hip_flexion_l	hip_adduction_l	hip_rotation_l	knee_angle_l	knee_adduction_l	knee_angle_l_beta	ankle_angle_l	subtalar_angle_l	mtp_angle_l	lumbar_extension	lumbar_bending	lumbar_rotation	arm_flex_r	arm_add_r	arm_rot_r	elbow_flex_r	pro_sup_r	wrist_flex_r	wrist_dev_r	arm_flex_l	arm_add_l	arm_rot_l	elbow_flex_l	pro_sup_l	wrist_flex_l	wrist_dev_l
      0.50000000	      7.83325505	      5.80630669	     -4.61672195	     -1.61130343	      0.97638792	      0.34292064	    -22.05810407	     -7.18543749	    -17.21589283	     16.67645210	      1.62739788	      0.29105900	     14.34874088	      5.97289764	     -9.50673978	     10.24952885	      3.97257622	    -13.43838219	      5.81427992	     -1.05079504	      0.10147833	     -7.37823664	      9.67614489	     -9.50673978	    -17.14173058	    -10.72467269	      7.49275323	     23.29678039	    -16.33099679	     29.21044445	     39.10681038	     90.00000001	      0.00000000	      0.00000000	    -18.94890127	    -13.78570766	      7.63108827	     42.14655302	     90.00000001	      0.00000000	      0.00000000
      0.51000000	      7.66004380	      6.06407996	     -4.63951452	     -1.60230224	      0.97735166	      0.34103632	    -21.96807429	     -7.83294349	    -17.41842931	     17.51487761	      1.66068706	      0.30569228	     13.23540493	      5.99300357	     -9.47063274	      9.70704405	      4.47705471	    -13.72543212	      5.32478231	     -1.14980886	      0.09293498	     -7.82366828	     10.00705933	     -9.47063274	    -16.87650670	    -11.08579471	      7.29900565	     22.62491277	    -16.23626072	     29.10953872	     39.13480601	     90.00000001	      0.00000000	      0.00000000	    -18.60827180	    -13.94403139	      7.82982552	     41.95100927	     90.00000001	      0.00000000	      0.00000000
      0.52000000	      7.50889235	      6.32031323	     -4.57280231	     -1.59328033	      0.97847701	      0.33896209	    -21.82078230	     -8.51843852	    -17.72880383	     18.55267824	      1.76399600	      0.32380532	     12.04144484	      6.01245295	     -9.43296138	      9.16607336	      4.98654572	    -13.87468397	      4.91348046	     -1.20612000	      0.08575641	     -8.06758058	     10.27898875	     -9.43296138	    -16.66676672	    -11.42183528	      7.02479264	     21.92438276	    -16.15940210	     28.99003181	     39.13068559	     90.00000001	      0.00000000	      0.00000000	    -18.23359400	    -14.12031201	      8.02025331	     41.79188575	     90.00000001	      0.00000000	      0.00000000
      0.53000000	      7.38470079	      6.55079039	     -4.48052381	     -1.58428479	      0.97976872	      0.33686325	    -21.56728384	     -9.21075779	    -18.13301439	     19.83738460	      1.84512740	      0.34622768	     10.66583395	      5.97458555	     -9.39523361	      8.60570871	      5.47354036	    -13.90854754	      4.55696754	     -1.25763056	      0.07953409	     -8.14175979	     10.49093723	     -9.39523361	    -16.51218963	    -11.72175987	      6.74439136	     21.19485642	    -16.08568388	     28.84707510	     39.11275912	     90.00000001	      0.00000000	      0.00000000	    -17.79690863	    -14.32417945	      8.19660673	     41.60785564	     90.00000001	      0.00000000	      0.00000000
      0.54000000	      7.25848358	      6.77546213	     -4.33299322	     -1.57535261	      0.98115935	      0.33461326	    -21.17968846	     -9.95196493	    -18.64345712	     21.39997074	      1.94580035	      0.37349995	      9.25142952	      5.91904645	     -9.34395332	      8.06713284	      5.97943799	    -13.76419124	      4.24662540	     -1.32914468	      0.07411760	     -8.13748425	     10.61942855	     -9.34395332	    -16.38321917	    -11.99425019	      6.41640920	     20.42131974	    -16.00189861	     28.61407381	     39.10310809	     90.00000001	      0.00000000	      0.00000000	    -17.31388083	    -14.55123134	      8.43475876	     41.42780205	     90.00000001	      0.00000000	      0.00000000
      0.55000000	      7.28627886	      6.74982151	     -4.20525566	     -1.56661054	      0.98287232	      0.33260081	    -20.86566236	    -10.41634782	    -18.81050207	     23.03301293	      2.06097117	      0.40200191	      7.63690242	      5.79123907	     -9.32454515	      7.39160766	      6.09203444	    -13.67056402	      4.12419449	     -1.18268917	      0.07198077	     -7.77047389	     10.72857650	     -9.32454515	    -16.48555357	    -12.01155324	      6.08749052	     19.75948596	    -15.94666772	     28.54504013	     39.01504450	     90.00000001	      0.00000000	      0.00000000	    -16.77978838	    -14.72421725	      8.48621601	     41.27471908	     90.00000001	      0.00000000	      0.00000000
      0.56000000	      7.27023062	      6.87897024	     -4.05607519	     -1.55777947	      0.98454118	      0.33046512	    -20.31031525	    -11.06491548	    -19.39378560	     25.00857027	      1.96512540	      0.43648189	      5.75645820	      5.30813853	     -9.30059153	      6.72099495	      6.46688853	    -13.49840112	      3.85969557	     -1.19893464	      0.06736440	     -7.41404171	     10.91029198	     -9.30059153	    -16.51830840	    -12.19306328	      5.80685426	     18.95874540	    -15.91102482	     28.39279256	     38.94627062	     90.00000001	      0.00000000	      0.00000000	    -16.14042857	    -14.93565154	      8.61631758	     41.02373821	     90.00000001	      0.00000000	      0.00000000
      0.57000000	      7.15660575	      7.05508130	     -3.84549624	     -1.54909970	      0.98601804	      0.32810448	    -19.48178473	    -11.83763276	    -20.04901960	     27.33937527	      1.87457373	      0.47716211	      3.81166931	      4.61101089	     -9.26520170	      6.18657889	      6.93919634	    -13.16093436	      3.60913046	     -1.28931198	      0.06299121	     -7.10835884	     11.03492032	     -9.26520170	    -16.47264505	    -12.37695200	      5.46314391	     18.10628286	    -15.82073950	     28.11283207	     38.91966658	     90.00000001	      0.00000000	      0.00000000	    -15.45684523	    -15.17971520	      8.88762919	     40.76318976	     90.00000001	      0.00000000	      0.00000000
      0.58000000	      7.15875277	      7.07529115	     -3.66490169	     -1.54066123	      0.98766432	      0.32594599	    -18.64276441	    -12.45812685	    -20.50653759	     29.79586278	      1.77197076	      0.52003591	      1.86904753	      3.90533461	     -9.23245105	      5.52267178	      7.16995022	    -12.85662459	      3.41205834	     -1.25908711	      0.05955165	     -6.64936076	     11.10767324	     -9.23245105	    -16.61191828	    -12.41734988	      5.15514291	     17.31897355	    -15.76923649	     27.89456850	     38.80925541	     90.00000001	      0.00000000	      0.00000000	    -14.70326695	    -15.41949803	      9.11193301	     40.55168008	     90.00000001	      0.00000000	      0.00000000
      0.59000000	      7.13075992	      7.09220903	     -3.46477208	     -1.53233801	      0.98915778	      0.32369635	    -17.63393998	    -13.11006879	    -20.91588847	     32.45772785	      1.64818641	      0.56649422	     -0.13950565	      2.92059837	     -9.19548258	      4.90399598	      7.41097086	    -12.50678399	      3.23389063	     -1.26062099	      0.05644204	     -6.23666967	     11.19170482	     -9.19548258	    -16.72190972	    -12.42606705	      4.83804669	     16.52699289	    -15.71794996	     27.66049498	     38.70146231	     90.00000001	      0.00000000	      0.00000000	    -13.91427894	    -15.66515275	      9.39684422	     40.32391015	     90.00000001	      0.00000000	      0.00000000
      0.60000000	      7.18595147	      7.05704565	     -3.30804962	     -1.52414267	      0.99068673	      0.32161590	    -16.58346229	    -13.68486859	    -21.22511490	     35.20588047	      1.40401956	      0.61445853	     -2.14858062	      1.81203694	     -9.16346012	      4.16990979	      7.57049963	    -12.27199839	      2.99357648	     -1.22709147	      0.05224777	     -5.73287130	     11.33868138	     -9.16346012	    -16.93682546	    -12.39653892	      4.53262607	     15.77463271	    -15.66488222	     27.49648343	     38.55460640	     90.00000001	      0.00000000	      0.00000000	    -13.08226315	    -15.90701483	      9.65447811	     40.08231165	     90.00000001	      0.00000000	      0.00000000
      0.61000000	      7.06761762	      7.06829905	     -3.10375481	     -1.51628237	      0.99183216	      0.31938875	    -15.20947694	    -14.36109325	    -21.15679471	     38.17194734	      1.43827734	      0.66622616	     -4.15046790	     -0.22706374	     -9.10099964	      3.70176151	      7.79942018	    -11.91995572	      2.86899930	     -1.26818708	      0.05007348	     -5.38797947	     11.37008902	     -9.10099964	    -16.99569119	    -12.37661743	      4.23982807	     14.99767566	    -15.59696119	     27.19720291	     38.39766344	     90.00000001	      0.00000000	      0.00000000	    -12.17651443	    -16.23933694	     10.17892067	     39.86301018	     90.00000001	      0.00000000	      0.00000000
      0.62000000	      7.32707148	      6.95358322	     -3.04119259	     -1.50836513	      0.99341978	      0.31767810	    -14.17253271	    -14.79097719	    -21.29726224	     40.93589875	      0.99788706	      0.71446622	     -5.91251419	     -1.24438627	     -9.07634568	      2.68405011	      7.80478268	    -11.82418208	      2.52953961	     -1.11178867	      0.04414879	     -4.81519893	     11.70084124	     -9.07634568	    -17.45259593	    -12.28932827	      4.00199582	     14.34445392	    -15.55740929	     27.18381518	     38.16069666	     90.00000001	      0.00000000	      0.00000000	    -11.21523179	    -16.47552318	     10.32870992	     39.63129519	     90.00000001	      0.00000000	      0.00000000
      0.63000000	      7.18329020	      6.92897154	     -2.87502942	     -1.50095484	      0.99428609	      0.31558149	    -12.57134524	    -15.38427235	    -20.64810995	     43.95030141	      1.26267694	      0.76707747	     -7.93239106	     -4.26893675	     -8.98842208	      2.30615636	      7.97821056	    -11.83634408	      2.43101032	     -1.18419321	      0.04242913	     -4.45541464	     12.04732751	     -8.98842208	    -17.52295418	    -12.22888746	      3.71619828	     13.61649679	    -15.47070742	     26.93891679	     37.97228197	     90.00000001	      0.00000000	      0.00000000	    -10.20346059	    -16.82114815	     11.03421376	     39.40028995	     90.00000001	      0.00000000	      0.00000000
